/* XPM */
static char *_b140171e5a44d44f13eb6877c2fc0fcIEHzdNwIMvDJY4VE[] = {
/* columns rows colors chars-per-pixel */
"32 32 12 1 ",
"  c None",
". c #241407",
"X c #311B09",
"o c #3B210C",
"O c #41220A",
"+ c #DF7D2D",
"@ c #F86B3C",
"# c #FE7734",
"$ c #FF8227",
"% c #ED8630",
"& c #FF8934",
"* c #FD8F34",
/* pixels */
"         ..............         ",
"        .OOOOOOOOOOOOOO.        ",
"        .OOOOOOOOOOOOOO.        ",
"        .OOOOOOOOOOOOOO.        ",
"        .OOOOOOOOOOOOOO.        ",
"        .OOOOOOOOOOOOOO.        ",
"       ..OOOOOOOOOOOOOO..       ",
"     ..o.&&&&&&&&&&&&&&.o..     ",
"    .OOo.&&&&&&&&&&&&&&.oOO.    ",
"   .oOOOoXXXXXXXXXXXXXXoOOOo.   ",
"    .oOOOOOOOOOOOOOOOOOOOOo.    ",
"     ..OOOOOOOOOOOOOOOOOO..     ",
"       ..................       ",
"       .#&************&#.       ",
"       .#&************&#.       ",
"       .&&*.**.**.**.*&&.       ",
"       .&**.%%.**.%%.**&.       ",
"       .&**.++.**.++.**&.       ",
"       .#***..****..***#.       ",
"        .#************#.        ",
"  ...  ..#&****..****&#..  ...  ",
" .***..#$$$&********&$$$#..***. ",
".**.**&$.$#$&******&$#$.$&**.**.",
".$. ....&$.#$&****&$#.$&.... .$.",
".#.  .**&.$$#&****&#$$.&**.  .#.",
" .  .**&..&$.#&&&&#.$&..&**.  . ",
"   .**...*&..$$##$$..&*...**.   ",
"  .&*. .*&..**@..@**..&*. .*&.  ",
" .@#. .*&...*&.  .&*...&*. .#@. ",
" ... ......*&@.  .@&*...... ... ",
"    .@#&***&@.    .@&***&#@.    ",
"     .........    .........     "
};
