/* XPM */
static char *_b59488a21504355f9817bf99a17894cPmRdsVMaw2XLhm2O[] = {
/* columns rows colors chars-per-pixel */
"32 32 5 1 ",
"  c #462100",
". c #5D2F00",
"X c #6D3300",
"o c #7E4100",
"O c #985F00",
/* pixels */
"oOoo.o. .  . oOoo oXooOo o  Ooo ",
"oOoo.oo   oo XoXo oXXoOO . .OOo ",
"OOXo.oo o.oO..XXO.oXXoOO oO.oOo ",
"OOXX oo.ooOOo.XXO..XXOOO.oOooo .",
"OoXX .o XoOOo.XoOo.XXOOo.OOoXo o",
"OXXX  . XXOOO.oXOO.XXOO.OOOoXX.o",
"OXXo. . XXOOO.OoOO.XoOo.OOOoXo.o",
"oXX.Oo. XXOOO.O.Oo XXOo.OOoXX.oo",
"oXX.OoO.XoOoO o.o. Xooo.oOoXX.oo",
"oXo.OOO.oXooO o o.  ooo  .oXo oo",
"oo. OOO.ooOoX . .o ..o    .o. .o",
"  . OoOo.oOXX  .oO o.  ..  .   .",
"    ooOo.oOXX  ooO.O. .ooo .o o.",
" Oo .ooo.oOXo  OoOoOoXoooo OoXOo",
".Ooo.o.o oooo  OoOOOoXo.oo OXoOo",
"oOOo .   o.oo  OXoOOo . .o.OXoOO",
"OOOo o . o o.. oXXOOO    o.OXXOO",
"OoOo o.o . . o.oXXOoO .  ..oXXOO",
"oXOo o.O..oo.oo.XXOoO Xo.. oXXOO",
"XXoo.XoOo.oo.Xo.XXOoO.XXo. oXooO",
"XXoo.XoOo..ooXX.XXooO.XXoo .ooOO",
"XXXo.XXOOo.oOXX XXOoo.XXoo. ooOO",
"XXX. XXOOO oOXX .XOoo.XoOo. .oOo",
"XoX. XXOOO OOXXX.oO.o.ooOoo  oOo",
"Xoo. XXoOo OOXXX oO.o o.OOo  .o.",
"oo.  oXOOo OOXXX oo . . OOo.  . ",
" .   oXOoo OooXX oo.oo  oOoo .. ",
" o.o ooO.o OoOXX o.Ooo .oOoo ...",
" o.o..oo o.OoOXX  .OoO.o.ooo... ",
"ooooo ..   ooOXX  oOoO.o.o.o .. ",
"ooooo  ... ooOXo. oOoOoo.o.o .  ",
"oooo.. ....ooOoo. oooOoo.o ..o. "
};
