/* XPM */
static char *ada49d11b7d641879433210bd1248002ikAATAwIfYiskzrb[] = {
/* columns rows colors chars-per-pixel */
"96 96 15 1 ",
"  c None",
". c black",
"X c #303038",
"o c #201742",
"O c #3F3F49",
"+ c #535663",
"@ c #5D6C7C",
"# c #6A4CD4",
"$ c #8D3EB6",
"% c #9A45C5",
"& c #844CDA",
"* c #9B47DB",
"= c #9E4ED8",
"- c #A74ED5",
"; c #658091",
/* pixels */
"                                                                                                ",
"                                                                                                ",
"                                                                                                ",
"                                                                                                ",
"                                                                                                ",
"                                                                                                ",
"                                                                                                ",
"                                                                                                ",
"                                                                                                ",
"                                                                                                ",
"                                                                                                ",
"                                                                                                ",
"                                                                                                ",
"                                                                                                ",
"                                                                                                ",
"                                                                                                ",
"                @@O+XO++++OO+OXOOXO+OO++++OXXXXXXXXXXO++++OO+OXOOXO+OO++++OX+O@@                ",
"                @XX+X+@@;;;+@+O++O+@+;;;@@+X+XX  XX+X+@@;;;+@+O++O+@+;;;@@+X+XX@                ",
"                OXX@OO++++O+@+XOOX+@+O++++OX@      @XO++++O+@+XOOX+@+O++++OO@XXO                ",
"                ++@@O        O+O         O+O@@++++@@O+O         O+O       OO@@++                ",
"                XXOO         +@+         +@+OOXXXXOO+@+         +@+        OOOXX                ",
"                O+O          +@+         +@+        +@+         +@+         OO+O                ",
"                +@+          +@+         +@+        +@+         +@+         ++@+                ",
"                +@+          +@+         +@+        +@+         +@+         ++@+                ",
"                +;+          +;+         +;+        +;+         +;+         ++;+                ",
"                +;+          +;+         +;+        +;+         +;+         ++;+                ",
"                O;O          O;O         O;O        O;O         O;O         OO;O                ",
"                O++          +++         +++        +++         +++         +++O                ",
"                +@@          @@@         @@@        @@@         @@@         @@@+                ",
"                O++          +++         +++        +++         +++         +++O                ",
"                XOX          XOX         XOX        XOX         XOX         XXOX                ",
"                O+O          O+O         O+O        O+O         O+O         OO+O                ",
"                O+O          O+O         O+O        O+O         O+O         OO+O                ",
"                XOX          XOX         XOX        XOX         XOX         XXOX                ",
"                O++          +++         +++        +++         +++         +++O                ",
"                +@@          @@@         @@@        @@@         @@@         @@@+                ",
"                O++          +++         +++        +++         +++         +++O                ",
"                O;O          O;O         O;OooooooooO;O         O;O         OO;O                ",
"                +;+          O+O         O+O########O+O         O+O         ++;+                ",
"                +;+          +@+         +@+&&====&&+@+         +@+         ++;+                ",
"                +@+          +@+        .+@+=------=+@+o        +@+         ++@+                ",
"                +@+          +;+        .+;+--------+;+o        +;+         ++@+                ",
"                O+O          +;+       o&+;+--------+;+&o       +;+         OO+O                ",
"                XXXX         O;O    o  o&O;O--------O;O&o  o    O;O         XXXX                ",
"                X+@@O        +++   o#o o&+++--------+++&o o#o   +++        O@@+X                ",
"                XX @O        XOX   o&o o=@@@--o--o--@@@=o o&o   XOX        O@ XX                ",
"                XX +XO++++++XO+O   o=o o=+++%%o--o%%+++=o o=o   O+OX++++++OX+ XX                ",
"                X  +XXO@+++@OO+O  o-=o o=XOX$$o--o$$XOX=o o=-o  O+OO@+++@OXX+  X                ",
"                X  +XXO@+++@OO+O  o-o  o&O+Ooo----ooO+O&o  o-o  O+OO@+++@OXX+  X                ",
"                XX +XO++++++XO+O  o--o  oO+O--------O+Oo  o--o  O+OX++++++OX+ XX                ",
"                XX @O        XOX o o--oooXOX---oo---XOXooo--o o XOX        O@ XX                ",
"                X+@@O        +++o#o o-=*&+++--------+++&=--o o#o+++        O@@+X                ",
"                XXXX         @@@o&o  ooo=@@@=------=@@@=ooo  o&o@@@         XXXX                ",
"                O+O          +++o==oo----+++*=-==-=*+++----oo==o+++         OO+O                ",
"                +@+          O;O o----oooO;O=*=**=*=O;Oooo----o O;O         ++@+                ",
"                +@+          +;+  o-ooo&#+;+-=#oo#=-+;+#&ooo-o  +;+         ++@+                ",
"                +;+          +;+ o#o-o==o+;+-=o  o=-+;+o==o-o#o +;+         ++;+                ",
"                +;+          +@+ o&=-o=o-+@+=#o  o#=+@+-o=o-=&o +@+         ++;+                ",
"                O;O          +@+  oooo--o+@+#o    o#+@+o--oooo  +@+         OO;O                ",
"                O++          O+O      o--O+Oo      oO+O--o      O+O         +++O                ",
"                +@@          @@@      ooo@@@        @@@ooo      @@@         @@@+                ",
"                O++          +++         +++        +++         +++         +++O                ",
"                XOX          XOX         XOX        XOX         XOX         XXOX                ",
"                O+O          O+O         O+O        O+O         O+O         OO+O                ",
"                O+O          O+O         O+O        O+O         O+O         OO+O                ",
"                XOX          XOX         XOX        XOX         XOX         XXOX                ",
"                O++          +++         +++        +++         +++         +++O                ",
"                +@@          @@@         @@@        @@@         @@@         @@@+                ",
"                O++          +++         +++        +++         +++         +++O                ",
"                O;O          O;O         O;O        O;O         O;O         OO;O                ",
"                +;+          +;+         +;+        +;+         +;+         ++;+                ",
"                +;+          +;+         +;+        +;+         +;+         ++;+                ",
"                +@+          +@+         +@+        +@+         +@+         ++@+                ",
"                +@+          +@+         +@+        +@+         +@+         ++@+                ",
"                O+O          +@+         +@+        +@+         +@+         OO+O                ",
"                XXOO         +@+         +@+OOXXXXOO+@+         +@+        OOOXX                ",
"                ++@@O        O+O         O+O@@++++@@O+O         O+O       OO@@++                ",
"                OXX@OO++++O+@+XOOX+@+O++++OX@      @XO++++O+@+XOOX+@+O++++OO@XXO                ",
"                @XX+X+@@;;;+@+O++O+@+;;;@@+X+XX  XX+X+@@;;;+@+O++O+@+;;;@@+X+XX@                ",
"                @@O+XO++++OO+OXOOXO+OO++++OXXXXXXXXXXO++++OO+OXOOXO+OO++++OX+O@@                ",
"                                                                                                ",
"                                                                                                ",
"                                                                                                ",
"                                                                                                ",
"                                                                                                ",
"                                                                                                ",
"                                                                                                ",
"                                                                                                ",
"                                                                                                ",
"                                                                                                ",
"                                                                                                ",
"                                                                                                ",
"                                                                                                ",
"                                                                                                ",
"                                                                                                ",
"                                                                                                "
};
