/* XPM */
static char *_cab075d2d25407fd1f90bd202aa6c670UtudjTjLQrrcZfF[] = {
/* columns rows colors chars-per-pixel */
"32 32 45 1 ",
"  c #209FDB",
". c #1FA0DB",
"X c #1FA0DD",
"o c #20A2D8",
"O c #24A1DB",
"+ c #27A4DB",
"@ c #21A0DC",
"# c #24A1DD",
"$ c #2AA2DB",
"% c #2DA3DB",
"& c #2BA4DB",
"* c #28A3DD",
"= c #2FA3DE",
"- c #2EA4DE",
"; c #26ACDA",
": c #26AEDD",
"> c #28ABDA",
", c #28ADDB",
"< c #2CADDA",
"1 c #28ABDE",
"2 c #28ADDD",
"3 c #2CADDC",
"4 c #31A2DE",
"5 c #30A4DD",
"6 c #30AFDB",
"7 c #30AFDD",
"8 c #34AEDE",
"9 c #31B0DE",
"0 c #33BBDB",
"q c #35BADB",
"w c #33BCD9",
"e c #36BCDA",
"r c #36BCDC",
"t c #39BCDB",
"y c #3DBEDB",
"u c #3ABBDD",
"i c #3ABEDC",
"p c #3CBDDC",
"a c #28A2E0",
"s c #2FA3E0",
"d c #2FACE2",
"f c #31A2E0",
"g c #33AFE0",
"h c #31B0E0",
"j c #40BCDF",
/* pixels */
"oooooooo@@@@o#O#O##a*===5555=-=-",
"1;2,,;oooooooOOOO#*$*--=5---g77g",
"oooooo:2,,222OOOOO$$=h77g777s===",
"oooqOooOOOOOO233d37774=555=-====",
"oooooOOOOOOOO##**$*=-455p55-4-==",
",,,,,OOOOOO##**$**==445554=78877",
",,22,,223333a$&&%%%s888878878787",
"2,2,,2333333379997788877777788gh",
"ierer2333337998887888877888pyyyp",
",,,,2riiiipp99787788ppppypp77799",
",22233377999pppppppp888788777997",
"OOO##3797777777777888877787==**+",
"O##$$&%4===4h78877884=--444==$$#",
"O#*$*--4==-==f44s=ff==--4-=*$O#O",
"d33====-====--j4-===-====96<3323",
"$=%9777777----=--s7777779=$#OOO#",
"$==-==----97999797---====**$OO#*",
"*p===--====*=*=======-==**#OOO*$",
"===---=*====%===**===**$*OO##$$*",
"4-=-=9733333333=%=&&**$$OOr#$*$#",
"7779733333333337333333####**$#,,",
"79973333333333333333i322333332,;",
"h9333iiiiiiuiii33333223333332,2:",
"ppiri3,,22,3333ttiterr333332,,00",
"7333233322332,33332223iiiieeww;;",
"33323333333332<<3233333332,,;;:;",
"33222#O###OO*$*3332333332,;;;;;;",
"#OO###$iOO##***$$$*$$$32,;;>;;..",
"oO##,233223333**O***#OOOoo..  X.",
"d<3,###O*#O*O#g337333ooo.....;;;",
"#O#O#***#***######O#O,:;;;;;;...",
"$*#*********###O##Oooo.o........"
};
