/* XPM */
static char *_a28f37c8d804030b5568d8feb35fb0bCcbD80eLFz7vJNDD[] = {
/* columns rows colors chars-per-pixel */
"16 16 23 1 ",
"  c #1F56F9",
". c #1F56FB",
"X c #1F55FD",
"o c #1D55FF",
"O c #1F55FF",
"+ c #2055FB",
"@ c #2054FF",
"# c #275CFA",
"$ c #275BFC",
"% c #275AFF",
"& c #265BFF",
"* c #275BFF",
"= c #265CFD",
"- c #295BFC",
"; c #295AFD",
": c #2959FF",
"> c #3B6EFB",
", c #3D6EFB",
"< c #3E6BFF",
"1 c #3B6EFD",
"2 c #3D6DFD",
"3 c #3D6CFF",
"4 c #3D6DFF",
/* pixels */
"4&&.OO&&&&&&4444",
"O:111411111&&&OO",
"O.&&&4&&&&O44OOO",
"O>1&&4114OO@@O==",
"444@OOOOO4&&&.&O",
"4&&.&&&&1OOOO>OO",
"=&OOOO.4+OO==<44",
"O&444&&&.&&44&&O",
"&&4:&&&&=.OOOOOO",
"OOOOOO4444&44&&&",
"O&444&=44.O4&OOO",
"..OO..OOOOOOOOOO",
"44444444&&&&OOOO",
"OOOOO&:44,441#&O",
"&&4444OOOO&&&&44",
"OOOO..4OOOOOOOOO"
};
